<svg xmlns="http://www.w3.org/2000/svg" version="1.2" baseProfile="tiny-ps" viewBox="0 0 256 256" preserveAspectRatio="xMidYMid meet" xml:space="preserve"><title>Brand logo</title>
  
  <g>
    <g fill="#fcfbfa" transform="matrix(.1 0 0 -.1 0 256)">
      <path d="M0 1280V0h2560v2560H0V1280z"/>
    </g>
    <g fill="#f2c1b8" transform="matrix(.1 0 0 -.1 0 256)">
      <path d="M491 2540c-24-11-65-36-92-56l-48-35-50-63c-138-173-235-431-281-749L0 1505v-450l20-137c43-293 132-541 256-715l44-61 53-46 53-45 55-25 54-26h172l59 30 59 29 60 60c33 33 81 93 107 132l47 72 45 106c58 138 91 253 123 431l26 145v550l-26 145c-43 239-109 433-199 584l-40 68-70 74-70 73-61 31-60 30H535l-44-20zm319-1260V510H700v1328l-14 11-15 12-48-7-48-7-36-37-36-37-16-60-17-59v-189l14-66 14-66 30-59c17-33 50-87 75-121l44-63-91-290-90-290H338l4 13c3 6 40 122 82 256l78 245-45 85c-25 47-54 116-66 153l-20 68-11 107-11 108 6 75c8 105 33 216 61 275l23 50 39 38 39 38 39 14 39 14 108 1h107v-770zm901 1264c-30-8-76-26-103-41l-50-27-47-52-47-51-31-64c-57-118-94-299-113-559l-10-135V945l10-140c6-77 19-194 30-260l19-120 27-80c14-44 42-106 60-137l35-57 49-44 50-45 67-28 68-28 176-4 176-4 64 16c35 9 83 27 107 39l44 22 54 57 53 58 30 64c41 84 77 224 96 368l15 117 10 271 10 270-10 267c-17 444-51 643-139 796l-30 52-48 47c-56 54-105 81-188 103l-59 15-161-1h-160l-54-15zm19-1264V510h-120v1540h120v-770zm423 737 46-27 25-33c60-80 101-200 127-372l12-80v-410l-12-80c-18-116-49-230-86-311l-33-72-40-40c-23-23-56-49-74-59l-33-17-107-4-108-4v1544l118-4 118-4 47-27zm-156-164-7-6V710h84l47 49 47 48 22 59c12 33 29 93 38 134l16 75v220l1 220-18 85c-22 101-54 175-92 212l-27 28-37 10c-42 12-65 13-74 3z"/>
    </g>
    <g fill="#9f9f9f" transform="matrix(.1 0 0 -.1 0 256)">
      <path d="M528 2544c-90-32-163-88-233-179-147-189-242-470-280-834L0 1395v-230l15-140c43-403 157-710 330-888 58-59 107-92 176-117l54-20h89l46 17c255 95 442 447 505 953l15 124v372l-15 122c-44 356-155 651-307 817l-53 58-50 32c-27 17-70 39-95 48l-46 17-49-1c-28-1-67-7-87-15zm292-1264V500H690v1340H577l-33-36-34-35-16-56-16-56 5-131 4-131 22-60 21-59 60-89c33-48 60-94 60-101 0-8-18-69-39-137-22-68-62-197-91-286l-51-163H341l-4 8c-2 4 32 121 76 260l80 252-52 103-52 103-19 94-20 95v263l15 78 15 77 28 61 29 61 34 34c18 19 52 42 74 52l40 19h235v-780zm895 1261c-33-10-80-28-104-41l-44-22-49-50-48-49-34-72-35-72-25-105-26-104-17-146-17-145v-445l-1-445 13-125c35-319 91-490 198-597 50-49 104-79 194-104l65-19h291l59 15c32 9 85 30 117 47l59 32 41 45 41 46 33 70 34 70 25 97 24 97 18 143 18 143v950l-18 143-18 143-24 97-25 97-37 75-36 75-51 50-51 50-45 22c-25 12-72 29-105 38l-59 15-151-1-150-1-60-17zm15-1261V510h-130v1540h130v-770zm381 760 36-10 45-39 44-40 31-58c38-71 59-140 79-258l14-90 7-165 6-165-12-124-12-124-26-101-25-101-35-72-35-72-45-41c-24-23-60-48-78-56l-34-14h-201v1540h205l36-10zm-119-757 3-568 27-3 27-3 31 16 30 16 30 40c61 85 95 224 106 435l6 129-11 119c-14 143-33 225-69 291l-27 49-34 23-34 23h-87l2-567z"/>
    </g>
    <g fill="#fd4625" transform="matrix(.1 0 0 -.1 0 256)">
      <path d="M528 2544c-90-32-163-88-233-179-147-189-242-470-280-834L0 1395v-230l15-140c43-403 157-710 330-888 58-59 107-92 176-117l54-20h89l46 17c255 95 442 447 505 953l15 124v372l-15 122c-44 356-155 651-307 817l-53 58-50 32c-27 17-70 39-95 48l-46 17-49-1c-28-1-67-7-87-15zm292-1264V500H690v1340H577l-33-36-34-35-16-56-16-56 5-131 4-131 22-60 21-59 60-89c33-48 60-94 60-101 0-8-18-69-39-137-22-68-62-197-91-286l-51-163H341l-4 8c-2 4 32 121 76 260l80 252-52 103-52 103-19 94-20 95v263l15 78 15 77 28 61 29 61 34 34c18 19 52 42 74 52l40 19h235v-780zm917 1260c-37-10-92-30-123-46l-55-28-38-41c-94-102-143-237-176-493l-16-117-9-267-10-268 10-267 9-268 16-120c27-202 59-315 120-415l36-59 41-36c54-46 111-73 204-96l77-19h214l83 21c102 25 148 48 207 102 108 99 164 262 200 582l16 150 1 420v420l-13 120c-25 245-58 390-113 499l-30 59-44 47-44 47-47 25-48 26-82 21-81 21-119-1-118-2-68-17zm-7-1260V500h-130v1560h130v-780zm421 748c26-15 59-42 75-60 63-76 113-227 135-412l12-99-6-221-5-221-22-99c-12-55-34-134-50-175l-30-76-38-50-37-49-49-31-49-30h-222l-3 765c-1 421 0 771 3 779l5 13 118-3 117-4 46-27zm-154-184-7-7V717l46 6 46 5 30 28c41 40 74 109 99 206l21 83 5 210 5 210-16 92c-34 198-81 271-181 288l-41 6-7-7z"/>
    </g>
    <g fill="#646464" transform="matrix(.1 0 0 -.1 0 256)">
      <path d="M1737 2540c-37-10-92-30-123-46l-55-28-38-41c-94-102-143-237-176-493l-16-117-9-267-10-268 10-267 9-268 16-120c27-202 59-315 120-415l36-59 41-36c54-46 111-73 204-96l77-19h214l83 21c102 25 148 48 207 102 108 99 164 262 200 582l16 150 1 420v420l-13 120c-25 245-58 390-113 499l-30 59-44 47-44 47-47 25-48 26-82 21-81 21-119-1-118-2-68-17zm-7-1260V500h-130v1560h130v-780zm421 748c26-15 59-42 75-60 63-76 113-227 135-412l12-99-6-221-5-221-22-99c-12-55-34-134-50-175l-30-76-38-50-37-49-49-31-49-30h-222l-3 765c-1 421 0 771 3 779l5 13 118-3 117-4 46-27zm-154-184-7-7V717l46 6 46 5 30 28c41 40 74 109 99 206l21 83 5 210 5 210-16 92c-34 198-81 271-181 288l-41 6-7-7z"/>
    </g>
    <g fill="#262626" transform="matrix(.1 0 0 -.1 0 256)">
      <path d="M1840 2550c-8-5-31-10-51-10s-62-9-94-20c-152-52-233-140-290-315l-26-80-19-120c-10-66-24-194-30-285l-10-165v-268c0-147 5-345 10-440l11-172 19-120 19-120 26-80c44-133 99-212 191-271l51-33 69-16c133-31 155-35 214-35s79 3 213 34l67 15 53 34c28 19 69 53 91 77l39 43 32 71 32 71 22 90c11 50 28 142 37 205l15 115 6 405 5 405-11 160c-5 88-18 210-27 270l-16 110-25 80c-47 150-101 228-199 291l-51 33-69 16c-134 32-155 35-222 35h-67l-15-10zm-100-1270V499l-72 3-73 3-3 765c-1 421 0 771 3 778l4 12h141v-780zm405 759c58-30 89-63 125-130 55-103 85-229 101-424l11-130-6-140c-9-238-42-398-107-532l-30-62-37-40c-20-21-55-48-77-60l-40-21h-225v1560h245l40-21zm-145-759V720h20c46 0 112 53 144 117 27 53 55 173 67 288l12 110-7 143-6 144-16 76c-33 161-94 242-184 242h-30v-560z"/>
    </g>
  </g>
</svg>